<svg id="icons_Q2" data-name="icons Q2" xmlns="http://www.w3.org/2000/svg" width="31.939" height="31.939" viewBox="0 0 31.939 31.939">
  <path id="Path_1618" data-name="Path 1618" d="M35.939,34.342V5.6a1.6,1.6,0,0,0-1.6-1.6H5.6A1.6,1.6,0,0,0,4,5.6V9.589a1.6,1.6,0,0,0,1.836,1.6A1.677,1.677,0,0,0,7.194,9.509V7.194H32.745V32.745H7.194v-2.4a1.6,1.6,0,0,0-1.836-1.6A1.677,1.677,0,0,0,4,30.429v3.912a1.6,1.6,0,0,0,1.6,1.6H34.342A1.6,1.6,0,0,0,35.939,34.342Z" transform="translate(-4 -4)" fill="#30aca6"/>
  <path id="Path_1619" data-name="Path 1619" d="M18.772,30.087,25.878,22.9a1.517,1.517,0,0,0,0-2.236l-7.106-7.186a1.677,1.677,0,0,0-2.156-.16,1.517,1.517,0,0,0-.16,2.4l4.471,4.471H5.6a1.6,1.6,0,1,0,0,3.194H20.927l-4.471,4.471a1.517,1.517,0,0,0,.16,2.4,1.677,1.677,0,0,0,2.156-.16Z" transform="translate(-4 -5.814)" fill="#30aca6"/>
</svg>
