<svg xmlns="http://www.w3.org/2000/svg" width="32.917" height="24.75" viewBox="0 0 32.917 24.75">
  <g id="icons_Q2" data-name="icons Q2" transform="translate(0)">
    <path id="Path_1375" data-name="Path 1375" d="M44.924,53.25V50.5a1.439,1.439,0,0,0-1.5-1.375H30.71L26.222,45H16.5A1.439,1.439,0,0,0,15,46.375v19.25a4.318,4.318,0,0,0,4.489,4.125H46.42a1.439,1.439,0,0,0,1.5-1.375V54.625a1.439,1.439,0,0,0-1.5-1.375Zm-26.932-5.5H24.95l3.666,3.3.823.825H41.932V53.25H22.481a1.439,1.439,0,0,0-1.5,1.375V65.556A1.478,1.478,0,0,1,19.713,67a1.589,1.589,0,0,1-1.206-.322,1.329,1.329,0,0,1-.514-1.053ZM44.924,67H23.977V56H44.924Z" transform="translate(-15 -45)" fill="#fff"/>
  </g>
</svg>
